<?xml version="1.0" encoding="utf-8"?>
<!-- Generator: Adobe Illustrator 18.0.0, SVG Export Plug-In . SVG Version: 6.00 Build 0)  -->
<!DOCTYPE svg PUBLIC "-//W3C//DTD SVG 1.1//EN" "http://www.w3.org/Graphics/SVG/1.1/DTD/svg11.dtd">
<svg version="1.1" id="レイヤー_1" xmlns="http://www.w3.org/2000/svg" xmlns:xlink="http://www.w3.org/1999/xlink" x="0px"
	 y="0px" viewBox="0 0 100 100" enable-background="new 0 0 100 100" xml:space="preserve">
<g>
	<path fill="#F08B1D" d="M32.2,37.8h35.6c1.2,0,2.2-1,2.2-2.2s-1-2.2-2.2-2.2H32.2c-1.2,0-2.2,1-2.2,2.2S31,37.8,32.2,37.8z"/>
	<path fill="#F08B1D" d="M67.8,47.8H32.2c-1.2,0-2.2,1-2.2,2.2c0,1.2,1,2.2,2.2,2.2h35.6c1.2,0,2.2-1,2.2-2.2
		C70,48.8,69,47.8,67.8,47.8z"/>
	<path fill="#F08B1D" d="M67.8,62.2H32.2c-1.2,0-2.2,1-2.2,2.2s1,2.2,2.2,2.2h35.6c1.2,0,2.2-1,2.2-2.2S69,62.2,67.8,62.2z"/>
</g>
</svg>
